<svg xmlns="http://www.w3.org/2000/svg" viewBox="0 0 322 27"><defs><style>.cls-1{fill:#806b68;}</style></defs><g id="Layer_2" data-name="Layer 2"><g id="Layer_1-2" data-name="Layer 1"><path class="cls-1" d="M322,15.39c-.14.51-.28,1-.41,1.51-1.47,5.52-5.15,8.47-10.43,9.51a20.63,20.63,0,0,1-3.69.27c-3,0-6.05,0-9.07,0h-1V.42c.09,0,.17-.11.25-.11,4,0,8-.09,12,.09a12.61,12.61,0,0,1,12.22,10.73,3.24,3.24,0,0,0,.19.52Zm-21.85,8.89c3.82-.22,7.61.44,11.33-.5a9.68,9.68,0,0,0,6.48-5c2.86-5.44,1.24-14.74-8.22-15.86a86.93,86.93,0,0,0-9.42-.15s-.09.07-.17.12Z"/><path class="cls-1" d="M219.85,27c-.88-.18-1.76-.34-2.63-.56a11.94,11.94,0,0,1-5.66-2.92l1.08-2.19a12.26,12.26,0,0,0,5.3,2.77,12.42,12.42,0,0,0,6.89-.09,6.26,6.26,0,0,0,2-1.06,3.8,3.8,0,0,0-.27-6.19,17.55,17.55,0,0,0-3.85-1.56c-2.07-.68-4.22-1.11-6.25-1.89-2.94-1.13-4.23-3.1-4.24-6A6.45,6.45,0,0,1,216.49,1a14.69,14.69,0,0,1,12.94,1,5,5,0,0,1,.49.36l-.86,2.08c-1.35-.54-2.6-1.16-3.92-1.56a11.05,11.05,0,0,0-6.87.07,6.15,6.15,0,0,0-1.68.89,3.89,3.89,0,0,0,.34,6.59,33.82,33.82,0,0,0,5.37,1.89c1.58.52,3.21.9,4.75,1.52a5.84,5.84,0,0,1,4,5.78,6.31,6.31,0,0,1-3.87,6,26.64,26.64,0,0,1-3.72,1.1l-.68.18Z"/><path class="cls-1" d="M6.67,27a17.61,17.61,0,0,1-3.42-1.14A25.22,25.22,0,0,1,0,23.33l1.81-2c.48.52.88,1,1.35,1.46a6.09,6.09,0,0,0,5.9,1.54,4,4,0,0,0,3-3.38,9.38,9.38,0,0,0,.23-2c0-5.18,0-10.36,0-15.54,0-.15,0-.3-.05-.59H2.84V.35H15c0,.33.05.65.05,1,0,5.83,0,11.67,0,17.5a13.18,13.18,0,0,1-.24,2.51,6.24,6.24,0,0,1-5.1,5.38c-.35.07-.69.18-1,.28Z"/><path class="cls-1" d="M49.53.29A13.28,13.28,0,0,0,51,.28c.64-.09,1,.22,1.28.76q5.12,8.9,10.26,17.75l.6,1c.21-.35.37-.63.53-.91L73.45,1.74C74.38.12,74.62,0,76.54.41V26.63H74V6L73.76,6l-.48.79q-4.56,7.92-9.13,15.84c-.64,1.12-1.6,1.11-2.26,0L52.81,6.92a2.13,2.13,0,0,0-.63-.74V26.63H49.53Z"/><path class="cls-1" d="M146.66,26.59a2.86,2.86,0,0,1-3.29-1.17c-5-6.49-10-12.89-15.07-19.31-.14-.18-.31-.34-.59-.65V26.63H125V.38a2.87,2.87,0,0,1,3.24,1.12c5,6.56,10.16,13,15.26,19.52.11.14.23.26.5.55V.34h2.67Z"/><path class="cls-1" d="M110.41.37V2.71H95.35v9.34h13.39v2.41H95.36v9.78h15.58v2.41H92.57V.37Z"/><path class="cls-1" d="M240.26,26.7c.89-2,1.71-3.8,2.53-5.63q4.5-10,9-19.92a1.38,1.38,0,0,1,1.35-.9c1.39-.17,2,.38,2.61,1.69,3.54,8,7.19,16,10.8,24,.09.19.17.39.32.74-1,0-1.82,0-2.67,0-.2,0-.44-.38-.55-.63-.87-1.89-1.72-3.78-2.53-5.69a.93.93,0,0,0-1-.67q-6.52,0-13.06,0a1,1,0,0,0-1.07.74c-.8,1.88-1.67,3.73-2.47,5.62a.93.93,0,0,1-1,.69C241.79,26.66,241.1,26.7,240.26,26.7ZM253.55,3.27c-2.1,4.76-4.12,9.34-6.18,14h12.36C257.66,12.57,255.64,8,253.55,3.27Z"/><path class="cls-1" d="M185,26.58l-.2.09c-2.59.2-2.59.2-3.67-2.2-.62-1.39-1.25-2.77-1.84-4.17a.88.88,0,0,0-.95-.64q-6.57,0-13.15,0a1,1,0,0,0-1,.69c-.81,1.88-1.67,3.74-2.47,5.62a1,1,0,0,1-1.08.74c-.66-.05-1.32,0-2.11,0,.12-.33.19-.58.3-.81,3.72-8.25,7.46-16.5,11.16-24.76.31-.68.69-.79,1.36-.88C172.78.07,173.4.66,174,2c3.5,7.94,7.11,15.84,10.68,23.75C184.78,26,184.89,26.26,185,26.58Zm-19.44-9.32H178c-2.06-4.67-4.08-9.23-6.19-14Z"/><path class="cls-1" d="M30.82.33h2.66V26.64H30.82Z"/><path class="cls-1" d="M278.67.33h2.66V26.64h-2.66Z"/></g></g></svg>