<svg xmlns="http://www.w3.org/2000/svg" viewBox="0 0 110.17 163.15"><defs><style>.cls-1{fill:#92807d;}</style></defs><g id="Layer_2" data-name="Layer 2"><g id="Layer_1-2" data-name="Layer 1"><path class="cls-1" d="M82.11,163.15c-2.67-.1-5.34-.24-8-.28q-19.66-.31-39.34-.57c-.3,0-.61-.05-.95-.08V141.05C19.52,140,8.16,133.58,0,121.48l8.22-10.15c6.23,9.28,14.21,15.79,26,16.75,0-2.54,0-4.93,0-7.33.17-13.49.33-27,.55-40.47.1-6.4.15-12.81.5-19.2a49.42,49.42,0,0,1,4.66-19A29.92,29.92,0,0,1,58.75,25.85c.88-.27,1.21-.6,1.19-1.57-.07-3.67,0-7.34,0-11.23l-48.07.44V.64L73.59,0V23.61c2.81.36,5.38.56,7.89,1a41.94,41.94,0,0,1,27.77,18.18c.28.4.61.77.92,1.15v.28c-.89,1-1.8,1.91-2.66,2.9-1.93,2.21-3.84,4.44-5.86,6.79C95.11,43.76,86.5,37.11,73.91,36.58c0,.63,0,1.12,0,1.6,0,4.5.13,9,.17,13.49.14,14.53.24,29.07.41,43.6.08,7.33-.32,14.6-2.51,21.66-2.82,9.11-8,16.29-16.89,20.37-2.32,1.07-4.79,1.81-7.26,2.73v9.72l47.63.71v12.69ZM60.21,39.68a19.91,19.91,0,0,0-7.82,8.7c-2.56,5.3-3.37,11-3.51,16.78-.26,11.26-.35,22.52-.5,33.79-.08,5.9-.17,11.8-.22,17.71,0,3,0,5.94,0,9,.28-.12.48-.19.67-.29A18.9,18.9,0,0,0,57,116.91c2.82-5.6,3.67-11.63,3.62-17.81-.11-16.08-.28-32.16-.42-48.23C60.18,47.25,60.21,43.63,60.21,39.68Z"/></g></g></svg>