<svg xmlns="http://www.w3.org/2000/svg" viewBox="0 0 322 162.87"><defs><style>.cls-1{fill:#92807d;opacity:0.25;}.cls-2{fill:#806b68;}</style></defs><g id="Layer_2" data-name="Layer 2"><g id="Layer_1-2" data-name="Layer 1"><path class="cls-1" d="M184.87,162.87c-2.67-.1-5.34-.24-8-.29q-19.68-.3-39.34-.56c-.31,0-.62-.05-1-.08V140.81c-14.29-1.07-25.64-7.46-33.81-19.54L111,111.14c6.23,9.26,14.21,15.76,26,16.72,0-2.53,0-4.93,0-7.31q.25-20.2.55-40.4c.1-6.4.15-12.79.5-19.17a49.11,49.11,0,0,1,4.67-19,29.86,29.86,0,0,1,18.77-16.19c.88-.28,1.21-.6,1.19-1.57-.07-3.67,0-7.33,0-11.21l-48.07.44V.64L176.35,0V23.57c2.81.36,5.38.56,7.89,1A42,42,0,0,1,212,42.74c.27.41.6.77.91,1.16v.27c-.89,1-1.79,1.91-2.66,2.9-1.93,2.21-3.84,4.44-5.86,6.78-6.54-10.17-15.15-16.8-27.74-17.34,0,.63,0,1.12,0,1.61.06,4.49.13,9,.17,13.46.14,14.51.24,29,.41,43.53.09,7.32-.32,14.57-2.51,21.61-2.82,9.1-8,16.27-16.89,20.34-2.32,1.07-4.79,1.81-7.26,2.73v9.7l47.63.71v12.67ZM163,39.61a19.86,19.86,0,0,0-7.81,8.69c-2.56,5.29-3.38,11-3.52,16.75-.26,11.24-.35,22.48-.5,33.72q-.12,8.85-.22,17.68c0,3,0,5.94,0,9,.28-.11.48-.19.68-.29a18.76,18.76,0,0,0,8.18-8.46c2.82-5.58,3.67-11.6,3.62-17.77-.11-16.05-.28-32.1-.42-48.15C162.94,47.17,163,43.55,163,39.61Z"/><path class="cls-2" d="M322,85.15c-.14.5-.28,1-.41,1.5-1.47,5.51-5.15,8.46-10.43,9.49a20.64,20.64,0,0,1-3.69.28c-3,0-6.05,0-9.07,0h-1V70.2c.09,0,.17-.11.25-.11,4,0,8-.09,12,.09A12.61,12.61,0,0,1,321.81,80.9a3.52,3.52,0,0,0,.19.51ZM300.15,94c3.82-.22,7.61.44,11.33-.5a9.7,9.7,0,0,0,6.48-5c2.86-5.43,1.24-14.72-8.22-15.84a84.46,84.46,0,0,0-9.42-.14s-.09.06-.17.12Z"/><path class="cls-2" d="M219.85,96.73c-.88-.18-1.76-.34-2.63-.55a12,12,0,0,1-5.66-2.92l1.08-2.19a12.26,12.26,0,0,0,5.3,2.77,12.42,12.42,0,0,0,6.89-.09,6.26,6.26,0,0,0,2-1.06,3.78,3.78,0,0,0-.27-6.17A17.1,17.1,0,0,0,222.7,85c-2.07-.67-4.22-1.1-6.25-1.88-2.94-1.13-4.23-3.1-4.24-5.95a6.43,6.43,0,0,1,4.28-6.3,14.69,14.69,0,0,1,12.94,1,4.7,4.7,0,0,1,.49.35l-.86,2.08c-1.35-.54-2.6-1.16-3.92-1.55a11,11,0,0,0-6.87.07,5.89,5.89,0,0,0-1.68.89,3.87,3.87,0,0,0,.34,6.57,33.82,33.82,0,0,0,5.37,1.89c1.58.52,3.21.89,4.75,1.52a5.82,5.82,0,0,1,4,5.76,6.29,6.29,0,0,1-3.87,6,24.19,24.19,0,0,1-3.72,1.1l-.68.18Z"/><path class="cls-2" d="M6.67,96.73A17.59,17.59,0,0,1,3.25,95.6,25.22,25.22,0,0,1,0,93.07l1.81-2c.48.53.88,1,1.35,1.47A6.11,6.11,0,0,0,9.06,94a4,4,0,0,0,3-3.38,9.22,9.22,0,0,0,.23-2c0-5.17,0-10.34,0-15.51,0-.16,0-.31-.05-.59H2.84V70.13H15c0,.32.05.65.05,1,0,5.82,0,11.65,0,17.47a13.15,13.15,0,0,1-.24,2.5,6.22,6.22,0,0,1-5.1,5.37c-.35.07-.69.19-1,.28Z"/><path class="cls-2" d="M49.53,70.07a11,11,0,0,0,1.42,0c.64-.08,1,.23,1.28.77q5.12,8.87,10.26,17.72l.6,1,.53-.91q4.92-8.56,9.83-17.12c.93-1.61,1.17-1.72,3.09-1.32V96.36H74V75.81l-.2-.09-.48.79q-4.56,7.9-9.13,15.81c-.64,1.12-1.6,1.11-2.26,0L52.81,76.69a2.13,2.13,0,0,0-.63-.74V96.37H49.53Z"/><path class="cls-2" d="M146.66,96.33a2.87,2.87,0,0,1-3.29-1.17c-5-6.48-10-12.87-15.07-19.28-.14-.18-.31-.34-.59-.65V96.36H125V70.16a2.87,2.87,0,0,1,3.24,1.12c5,6.55,10.16,13,15.26,19.49l.5.55V70.12h2.67Z"/><path class="cls-2" d="M110.41,70.15v2.33H95.35v9.33h13.39v2.4H95.36V94h15.58v2.4H92.57V70.15Z"/><path class="cls-2" d="M240.26,96.43c.89-2,1.71-3.79,2.53-5.61q4.5-9.94,9-19.89a1.38,1.38,0,0,1,1.35-.9c1.39-.17,2,.38,2.61,1.69,3.54,8,7.19,16,10.8,24,.09.2.17.39.32.75-1,0-1.82,0-2.67,0-.2,0-.44-.38-.55-.63-.87-1.89-1.72-3.78-2.53-5.69a.93.93,0,0,0-1-.66q-6.52,0-13.06,0a1,1,0,0,0-1.07.74c-.8,1.88-1.67,3.73-2.47,5.61-.22.5-.47.73-1,.69S241.1,96.43,240.26,96.43ZM253.55,73c-2.1,4.75-4.12,9.33-6.18,14h12.36Z"/><path class="cls-2" d="M185,96.31c-.15.07-.17.09-.2.09-2.59.2-2.59.2-3.67-2.19-.62-1.39-1.25-2.77-1.84-4.17a.87.87,0,0,0-.95-.63q-6.57,0-13.15,0a1,1,0,0,0-1,.69c-.81,1.88-1.67,3.73-2.47,5.62a1,1,0,0,1-1.08.73c-.66,0-1.32,0-2.11,0,.12-.33.19-.58.3-.81,3.72-8.23,7.46-16.46,11.16-24.71.31-.68.69-.79,1.36-.88,1.41-.18,2,.41,2.61,1.71,3.5,7.92,7.11,15.8,10.68,23.7C184.78,95.72,184.89,96,185,96.31ZM165.59,87H178c-2.06-4.66-4.08-9.22-6.19-14Z"/><path class="cls-2" d="M30.82,70.11h2.66V96.38H30.82Z"/><path class="cls-2" d="M278.67,70.11h2.66V96.38h-2.66Z"/></g></g></svg>