<svg width="169" height="248" viewBox="0 0 169 248" fill="none" xmlns="http://www.w3.org/2000/svg">
<path opacity="0.25" d="M125.37 248C121.261 247.848 117.304 247.696 113.196 247.543C93.2609 247.239 73.3261 246.934 53.3913 246.63C52.9348 246.63 52.4783 246.63 51.8696 246.478C51.8696 235.821 51.8696 225.164 51.8696 214.355C30.1087 212.68 12.9131 202.937 0.434814 184.668C4.54351 179.492 8.6522 174.468 12.9131 169.292C22.3479 183.45 34.5218 193.346 52.4783 194.716C52.4783 190.91 52.4783 187.256 52.4783 183.602C52.7826 163.05 52.9348 142.649 53.3913 122.097C53.5435 112.354 53.6957 102.61 54.1522 92.8668C54.7609 82.8189 56.8913 73.0755 61.3044 63.9411C67.2392 51.6096 76.8261 43.3886 89.9131 39.2781C91.2826 38.8214 91.7392 38.3646 91.7392 36.8422C91.587 31.2093 91.7392 25.7287 91.7392 19.7913C67.2392 19.9435 43.0435 20.248 18.5435 20.4002C18.5435 13.8539 18.5435 7.45979 18.5435 0.913444C49.587 0.608963 80.9348 0.304481 112.435 0C112.435 12.1793 112.435 24.054 112.435 35.9288C116.696 36.5378 120.652 36.8422 124.457 37.4512C142.413 40.8005 156.413 50.0872 166.761 65.0068C167.217 65.6157 167.674 66.2247 168.13 66.8336C168.13 66.9859 168.13 67.1381 168.13 67.2904C166.761 68.8128 165.391 70.1829 164.022 71.7053C161.13 75.0546 158.239 78.4039 155.044 82.0577C145.152 66.5292 132.065 56.4813 112.891 55.7201C112.891 56.6335 112.891 57.3947 112.891 58.1559C113.044 65.0068 113.043 71.8576 113.196 78.7084C113.348 100.783 113.5 122.858 113.804 144.933C113.957 156.047 113.348 167.16 110 177.817C105.739 191.671 97.8261 202.632 84.2826 208.722C80.7826 210.397 76.9783 211.462 73.174 212.832C73.174 217.552 73.174 222.576 73.174 227.6C97.5218 227.904 121.717 228.361 145.609 228.665C145.609 235.212 145.609 241.606 145.609 248C138.913 248 132.065 248 125.37 248ZM92.0435 60.2873C86.2609 63.7888 82.7609 68.2038 80.1739 73.5322C76.2174 81.601 75 90.2787 74.8478 98.9564C74.3913 116.007 74.3913 133.211 74.087 150.262C73.9348 159.244 73.7826 168.226 73.7826 177.208C73.7826 181.775 73.7826 186.19 73.7826 190.91C74.2392 190.758 74.5435 190.605 74.8478 190.453C80.4783 187.56 84.4348 183.145 87.3261 177.513C91.587 168.987 92.9566 159.853 92.8044 150.414C92.6522 125.903 92.3479 101.545 92.1957 77.0338C91.8913 71.8576 92.0435 66.3769 92.0435 60.2873Z" fill="#92807D"/>
</svg>
